# xmcd
#
# Track frame offsets:
#	150
#	9653
#	21536
#	30635
#	44548
#	52820
#	64217
#	102431
#	114381
#	133155
#	147397
#	160040
#	173833
#	190918
#	209838
#	222989
#	241355
#	258263
#	269641
#	286111
#
# Disc length: 4133 seconds
#
# Revision: 2
# Processed by: cddbd v1.4PL0 Copyright (c) Steve Scherf et al.
# Submitted via: MusicWizard 6.0.2
#
DISCID=35102314
DTITLE=Johnny Cash - Columbia Records 1958-1986
DYEAR=1900
DGENRE=Country
TTITLE0=Oh, What A Dream
TTITLE1=I Still Miss Someone
TTITLE2=Pickin' Time
TTITLE3=Don't Take Your Guns To Town
TTITLE4=Five Feet High And Rising
TTITLE5=Seasons Of My Heart
TTITLE6=The Legend Of John Henry's Hammer
TTITLE7=Ring Of Fire
TTITLE8=The Ballad Of Ira Hayes
TTITLE9=Orange Blossom Special
TTITLE10=Folsom Prison Blues
TTITLE11=San Quentin #2
TTITLE12=A Boy Named Sue
TTITLE13=Sunday Morning Coming Down
TTITLE14=Man In Black
TTITLE15=One Piece At A Time
TTITLE16=(Ghost) Riders In The Sky
TTITLE17=Without Love
TTITLE18=The Baron
TTITLE19=Highway Patrolman
EXTD=1987
EXTT0=
EXTT1=
EXTT2=
EXTT3=
EXTT4=
EXTT5=
EXTT6=
EXTT7=
EXTT8=
EXTT9=
EXTT10=
EXTT11=
EXTT12=
EXTT13=
EXTT14=
EXTT15=
EXTT16=
EXTT17=With Nick Lowe and Dave Edmunds!
EXTT18=
EXTT19=
PLAYORDER=
